<svg version="1.1" id="Layer_1" xmlns="http://www.w3.org/2000/svg" xmlns:xlink="http://www.w3.org/1999/xlink" x="0px" y="0px"
	 width="100%" viewBox="0 0 380 366" enable-background="new 0 0 380 366" xml:space="preserve">
<path fill="#010100" opacity="1.000000" stroke="none" 
	d="
M381.000000,134.000000 
	C381.000000,211.999985 381.000000,289.499969 381.000000,366.999939 
	C254.333389,366.999969 127.666786,366.999969 1.000137,367.000000 
	C1.000091,245.000092 1.000091,123.000191 1.000046,1.000219 
	C127.666534,1.000146 254.333069,1.000146 380.999817,1.000073 
	C381.000000,45.166668 381.000000,89.333336 381.000000,134.000000 
M34.985661,203.500000 
	C34.988369,223.994934 35.073093,244.490494 34.916786,264.984222 
	C34.889244,268.594788 35.916744,270.689056 39.215080,272.420868 
	C48.181793,277.128937 56.983318,282.160828 65.753723,287.231445 
	C80.442398,295.723724 95.014511,304.417755 109.710838,312.896606 
	C133.344360,326.531616 157.243591,339.722961 180.572708,353.857452 
	C186.875336,357.676056 190.913498,357.759399 197.217773,353.998718 
	C224.649628,337.634705 252.505463,321.981445 280.207489,306.070404 
	C300.841492,294.218964 321.503693,282.415710 342.042603,270.401642 
	C343.308685,269.661011 344.254395,267.261230 344.256866,265.631714 
	C344.364777,195.148926 344.325256,124.665886 344.422089,54.183041 
	C344.426666,50.849678 343.297607,49.665211 340.168091,48.880192 
	C314.042053,42.326595 287.945251,35.654049 261.874115,28.884634 
	C240.143509,23.242247 218.488632,17.305494 196.726410,11.790328 
	C193.035995,10.855074 188.833313,10.673670 185.111206,11.397736 
	C177.619186,12.855163 170.303024,15.206284 162.900421,17.135365 
	C130.548401,25.566107 98.195084,33.991833 65.834122,42.388103 
	C55.591759,45.045551 45.324184,47.605797 34.986382,50.231289 
	C34.986382,101.215996 34.986382,151.858002 34.985661,203.500000 
z"/>
<path fill="#F9BD03" opacity="1.000000" stroke="none" 
	d="
M34.986023,203.000000 
	C34.986382,151.858002 34.986382,101.215996 34.986382,50.231289 
	C45.324184,47.605797 55.591759,45.045551 65.834122,42.388103 
	C98.195084,33.991833 130.548401,25.566107 162.900421,17.135365 
	C170.303024,15.206284 177.619186,12.855163 185.111206,11.397736 
	C188.833313,10.673670 193.035995,10.855074 196.726410,11.790328 
	C218.488632,17.305494 240.143509,23.242247 261.874115,28.884634 
	C287.945251,35.654049 314.042053,42.326595 340.168091,48.880192 
	C343.297607,49.665211 344.426666,50.849678 344.422089,54.183041 
	C344.325256,124.665886 344.364777,195.148926 344.256866,265.631714 
	C344.254395,267.261230 343.308685,269.661011 342.042603,270.401642 
	C321.503693,282.415710 300.841492,294.218964 280.207489,306.070404 
	C252.505463,321.981445 224.649628,337.634705 197.217773,353.998718 
	C190.913498,357.759399 186.875336,357.676056 180.572708,353.857452 
	C157.243591,339.722961 133.344360,326.531616 109.710838,312.896606 
	C95.014511,304.417755 80.442398,295.723724 65.753723,287.231445 
	C56.983318,282.160828 48.181793,277.128937 39.215080,272.420868 
	C35.916744,270.689056 34.889244,268.594788 34.916786,264.984222 
	C35.073093,244.490494 34.988369,223.994934 34.986023,203.000000 
M290.421051,68.169250 
	C258.016907,59.969482 225.615021,51.760696 193.199890,43.604511 
	C191.963989,43.293537 190.534912,43.209438 189.306458,43.495174 
	C179.422424,45.794205 169.551178,48.151997 159.701920,50.596165 
	C128.069992,58.445862 96.457428,66.373802 64.811974,74.168358 
	C61.471134,74.991234 59.884769,76.140427 59.895298,80.085228 
	C60.050007,138.065796 60.025486,196.046921 59.951324,254.027786 
	C59.947708,256.854767 60.750172,258.546234 63.240314,260.012573 
	C90.614616,276.131897 117.922691,292.363678 145.249908,308.562927 
	C158.833633,316.615143 172.373123,324.744751 186.074982,332.590759 
	C187.488480,333.400116 190.252563,333.164032 191.755554,332.304169 
	C210.229050,321.735626 228.581497,310.955536 246.970657,300.239471 
	C270.386536,286.594177 293.831848,272.998810 317.161530,259.207825 
	C318.475281,258.431213 319.563904,256.077576 319.568176,254.454819 
	C319.720612,196.141159 319.705444,137.827072 319.833466,79.513321 
	C319.840271,76.409576 318.874359,75.104767 315.905884,74.420921 
	C307.648773,72.518768 299.454956,70.341957 290.421051,68.169250 
z"/>
<path fill="#050402" opacity="1.000000" stroke="none" 
	d="
M290.828613,68.221436 
	C299.454956,70.341957 307.648773,72.518768 315.905884,74.420921 
	C318.874359,75.104767 319.840271,76.409576 319.833466,79.513321 
	C319.705444,137.827072 319.720612,196.141159 319.568176,254.454819 
	C319.563904,256.077576 318.475281,258.431213 317.161530,259.207825 
	C293.831848,272.998810 270.386536,286.594177 246.970657,300.239471 
	C228.581497,310.955536 210.229050,321.735626 191.755554,332.304169 
	C190.252563,333.164032 187.488480,333.400116 186.074982,332.590759 
	C172.373123,324.744751 158.833633,316.615143 145.249908,308.562927 
	C117.922691,292.363678 90.614616,276.131897 63.240314,260.012573 
	C60.750172,258.546234 59.947708,256.854767 59.951324,254.027786 
	C60.025486,196.046921 60.050007,138.065796 59.895298,80.085228 
	C59.884769,76.140427 61.471134,74.991234 64.811974,74.168358 
	C96.457428,66.373802 128.069992,58.445862 159.701920,50.596165 
	C169.551178,48.151997 179.422424,45.794205 189.306458,43.495174 
	C190.534912,43.209438 191.963989,43.293537 193.199890,43.604511 
	C225.615021,51.760696 258.016907,59.969482 290.828613,68.221436 
M236.701065,75.827888 
	C230.728745,74.371147 224.760025,72.899498 218.783401,71.460617 
	C204.369476,67.990448 190.164169,61.973732 174.977249,67.974854 
	C173.288986,68.641968 171.435242,68.893867 169.654449,69.322624 
	C141.199753,76.173706 112.734283,82.981148 84.323593,90.010063 
	C83.089035,90.315498 81.515915,92.647919 81.511703,94.040390 
	C81.358734,144.689224 81.344963,195.338638 81.489670,245.987488 
	C81.494484,247.671249 82.920128,250.043564 84.387131,250.928635 
	C116.133194,270.081757 148.135727,288.815491 179.686005,308.282898 
	C186.718323,312.622009 191.396454,312.708344 198.565811,308.302155 
	C229.313385,289.405304 260.520844,271.250092 291.744934,253.142212 
	C296.651520,250.296722 298.190460,246.987396 298.145569,241.604935 
	C297.948303,217.953445 298.098938,194.299072 298.117371,170.645752 
	C298.137024,145.488037 298.133545,120.330292 298.189545,95.172676 
	C298.195435,92.527222 298.188110,90.621254 294.705475,89.808464 
	C275.604767,85.350700 256.578705,80.572906 236.701065,75.827888 
z"/>
<path fill="#FABD04" opacity="1.000000" stroke="none" 
	d="
M237.114029,75.866455 
	C256.578705,80.572906 275.604767,85.350700 294.705475,89.808464 
	C298.188110,90.621254 298.195435,92.527222 298.189545,95.172676 
	C298.133545,120.330292 298.137024,145.488037 298.117371,170.645752 
	C298.098938,194.299072 297.948303,217.953445 298.145569,241.604935 
	C298.190460,246.987396 296.651520,250.296722 291.744934,253.142212 
	C260.520844,271.250092 229.313385,289.405304 198.565811,308.302155 
	C191.396454,312.708344 186.718323,312.622009 179.686005,308.282898 
	C148.135727,288.815491 116.133194,270.081757 84.387131,250.928635 
	C82.920128,250.043564 81.494484,247.671249 81.489670,245.987488 
	C81.344963,195.338638 81.358734,144.689224 81.511703,94.040390 
	C81.515915,92.647919 83.089035,90.315498 84.323593,90.010063 
	C112.734283,82.981148 141.199753,76.173706 169.654449,69.322624 
	C171.435242,68.893867 173.288986,68.641968 174.977249,67.974854 
	C190.164169,61.973732 204.369476,67.990448 218.783401,71.460617 
	C224.760025,72.899498 230.728745,74.371147 237.114029,75.866455 
M127.084953,215.185577 
	C129.973892,220.293411 135.363037,217.547302 139.383499,219.100693 
	C141.529724,228.139099 143.041489,229.509201 151.489075,229.800644 
	C151.560867,234.751480 154.072067,236.227859 158.933121,235.265854 
	C160.010803,235.052582 161.634476,237.598190 162.270035,239.230270 
	C161.727631,242.962296 161.185226,246.694321 160.615463,250.614624 
	C180.375793,250.614624 199.090408,250.614624 217.864395,250.614624 
	C217.864395,246.803925 217.864395,243.359314 217.864395,239.283630 
	C210.417450,239.283630 203.197784,239.283630 195.711090,239.283630 
	C195.711090,207.927933 195.711090,177.207352 195.711090,145.569839 
	C206.459534,148.682236 216.435471,151.769531 226.529465,154.404556 
	C231.123474,155.603821 231.859390,157.730591 230.447983,161.977966 
	C227.264694,171.557419 224.463684,181.263916 221.470627,191.037888 
	C226.328812,192.572922 229.261078,191.569656 230.780563,186.275833 
	C232.290848,181.014175 234.793350,176.037308 237.302841,169.844528 
	C239.709213,176.347137 242.003403,181.381821 243.402496,186.654037 
	C244.809311,191.955383 247.789841,192.396637 251.894531,191.119751 
	C248.539444,176.608246 245.307770,162.359833 241.850403,148.166397 
	C241.559280,146.971283 239.913498,145.614319 238.628128,145.228455 
	C223.824142,140.784088 208.999817,136.397797 194.096924,132.301514 
	C191.401611,131.560669 188.174072,131.606628 185.455673,132.309006 
	C176.281479,134.679413 167.207428,137.447601 158.130661,140.181808 
	C150.382675,142.515717 142.683716,145.012329 135.224182,147.354950 
	C135.404953,149.626938 135.966980,151.473755 135.614151,153.125092 
	C133.703217,162.068665 131.541855,170.958389 129.517624,179.878220 
	C128.602585,183.910370 127.805153,187.969223 126.488701,192.485779 
	C123.778191,195.555374 121.837242,198.602798 126.550270,201.653503 
	C126.864479,201.856903 126.860916,202.551224 126.179253,203.221375 
	C119.807159,203.321243 118.424675,205.444885 119.247757,213.989075 
	C121.821693,214.151001 124.412743,214.313995 127.084953,215.185577 
M228.510040,203.282104 
	C223.733749,203.282104 218.957458,203.282104 214.031372,203.282104 
	C213.272736,207.188721 212.628098,210.508255 211.975677,213.867889 
	C228.732437,213.867889 244.976013,213.867889 261.554901,213.867889 
	C260.904572,210.221542 260.326965,206.982834 259.666626,203.280212 
	C249.461716,203.280212 239.484436,203.280212 228.510040,203.282104 
z"/>
<path fill="#090803" opacity="1.000000" stroke="none" 
	d="
M126.954361,192.015961 
	C127.805153,187.969223 128.602585,183.910370 129.517624,179.878220 
	C131.541855,170.958389 133.703217,162.068665 135.614151,153.125092 
	C135.966980,151.473755 135.404953,149.626938 135.224182,147.354950 
	C142.683716,145.012329 150.382675,142.515717 158.130661,140.181808 
	C167.207428,137.447601 176.281479,134.679413 185.455673,132.309006 
	C188.174072,131.606628 191.401611,131.560669 194.096924,132.301514 
	C208.999817,136.397797 223.824142,140.784088 238.628128,145.228455 
	C239.913498,145.614319 241.559280,146.971283 241.850403,148.166397 
	C245.307770,162.359833 248.539444,176.608246 251.894531,191.119751 
	C247.789841,192.396637 244.809311,191.955383 243.402496,186.654037 
	C242.003403,181.381821 239.709213,176.347137 237.302841,169.844528 
	C234.793350,176.037308 232.290848,181.014175 230.780563,186.275833 
	C229.261078,191.569656 226.328812,192.572922 221.470627,191.037888 
	C224.463684,181.263916 227.264694,171.557419 230.447983,161.977966 
	C231.859390,157.730591 231.123474,155.603821 226.529465,154.404556 
	C216.435471,151.769531 206.459534,148.682236 195.711090,145.569839 
	C195.711090,177.207352 195.711090,207.927933 195.711090,239.283630 
	C203.197784,239.283630 210.417450,239.283630 217.864395,239.283630 
	C217.864395,243.359314 217.864395,246.803925 217.864395,250.614624 
	C199.090408,250.614624 180.375793,250.614624 160.615463,250.614624 
	C161.185226,246.694321 161.727631,242.962296 163.090073,239.174057 
	C168.604645,239.093750 173.299164,239.069656 178.426010,239.157562 
	C180.489822,238.801376 183.358963,240.777481 183.435394,236.553146 
	C183.550720,206.068558 183.550720,176.041199 183.550720,145.172684 
	C172.332153,148.538315 162.250839,151.972473 151.944748,154.484512 
	C146.668243,155.770630 146.817413,158.011353 148.155167,162.177597 
	C151.188721,171.625107 153.816223,181.202972 156.563873,190.574554 
	C150.391586,193.323334 148.929337,189.381531 147.514404,185.574493 
	C145.696823,180.684082 144.020309,175.741257 142.283020,170.821014 
	C139.232407,175.952728 136.956955,180.808594 135.624695,185.910736 
	C134.353180,190.780334 131.893890,192.881836 126.954361,192.015961 
z"/>
<path fill="#FABD02" opacity="1.000000" stroke="none" 
	d="
M126.721527,192.250870 
	C131.893890,192.881836 134.353180,190.780334 135.624695,185.910736 
	C136.956955,180.808594 139.232407,175.952728 142.283020,170.821014 
	C144.020309,175.741257 145.696823,180.684082 147.514404,185.574493 
	C148.929337,189.381531 150.391586,193.323334 156.563873,190.574554 
	C153.816223,181.202972 151.188721,171.625107 148.155167,162.177597 
	C146.817413,158.011353 146.668243,155.770630 151.944748,154.484512 
	C162.250839,151.972473 172.332153,148.538315 183.550720,145.172684 
	C183.550720,176.041199 183.550720,206.068558 183.027954,236.552048 
	C181.001343,237.687317 179.497528,238.366440 177.993698,239.045547 
	C173.299164,239.069656 168.604645,239.093750 163.458420,238.995667 
	C161.634476,237.598190 160.010803,235.052582 158.933121,235.265854 
	C154.072067,236.227859 151.560867,234.751480 151.489075,229.800644 
	C143.041489,229.509201 141.529724,228.139099 139.383514,219.100616 
	C135.363037,217.547302 129.973892,220.293411 127.500214,214.717224 
	C140.551956,214.248886 153.188446,214.248886 165.897797,214.248886 
	C165.897797,210.363510 165.897797,206.987915 165.897797,203.017227 
	C152.636826,203.017227 139.820999,203.017227 127.005157,203.017227 
	C126.860916,202.551224 126.864479,201.856903 126.550270,201.653503 
	C121.837242,198.602798 123.778191,195.555374 126.721527,192.250870 
z"/>
<path fill="#0E0C04" opacity="1.000000" stroke="none" 
	d="
M229.008606,203.281158 
	C239.484436,203.280212 249.461716,203.280212 259.666626,203.280212 
	C260.326965,206.982834 260.904572,210.221542 261.554901,213.867889 
	C244.976013,213.867889 228.732437,213.867889 211.975677,213.867889 
	C212.628098,210.508255 213.272736,207.188721 214.031372,203.282104 
	C218.957458,203.282104 223.733749,203.282104 229.008606,203.281158 
z"/>
<path fill="#0E0C05" opacity="1.000000" stroke="none" 
	d="
M126.592209,203.119293 
	C139.820999,203.017227 152.636826,203.017227 165.897797,203.017227 
	C165.897797,206.987915 165.897797,210.363510 165.897797,214.248886 
	C153.188446,214.248886 140.551956,214.248886 127.459625,214.362946 
	C124.412743,214.313995 121.821693,214.151001 119.247757,213.989075 
	C118.424675,205.444885 119.807159,203.321243 126.592209,203.119293 
z"/>
<path fill="#FABD04" opacity="1.000000" stroke="none" 
	d="
M178.426010,239.157562 
	C179.497528,238.366440 181.001343,237.687317 182.912628,237.009293 
	C183.358963,240.777481 180.489822,238.801376 178.426010,239.157562 
z"/>
</svg>